<mxfile host="app.diagrams.net" modified="2023-09-08T17:37:41.780Z" agent="Mozilla/5.0 (Windows NT 10.0; Win64; x64; rv:109.0) Gecko/20100101 Firefox/117.0" etag="l72dgqn4zkykh1dKkM3Z" version="21.7.2" type="device">
  <diagram name="Страница — 1" id="PO6SPmyXTiJdLFs5volx">
    <mxGraphModel dx="2261" dy="820" grid="1" gridSize="10" guides="1" tooltips="1" connect="1" arrows="1" fold="1" page="1" pageScale="1" pageWidth="827" pageHeight="1169" math="0" shadow="0">
      <root>
        <mxCell id="0" />
        <mxCell id="1" parent="0" />
        <mxCell id="FY-9RKJ4y2leJSX7ML3P-64" style="edgeStyle=orthogonalEdgeStyle;rounded=0;orthogonalLoop=1;jettySize=auto;html=1;exitX=0.25;exitY=0.1;exitDx=0;exitDy=0;exitPerimeter=0;entryX=1.009;entryY=0.6;entryDx=0;entryDy=0;entryPerimeter=0;endArrow=block;endFill=1;" parent="1" source="FY-9RKJ4y2leJSX7ML3P-1" target="FY-9RKJ4y2leJSX7ML3P-23" edge="1">
          <mxGeometry relative="1" as="geometry" />
        </mxCell>
        <mxCell id="FY-9RKJ4y2leJSX7ML3P-66" style="edgeStyle=orthogonalEdgeStyle;rounded=0;orthogonalLoop=1;jettySize=auto;html=1;exitX=0.5;exitY=0.5;exitDx=0;exitDy=0;exitPerimeter=0;endArrow=block;endFill=1;" parent="1" source="FY-9RKJ4y2leJSX7ML3P-1" target="FY-9RKJ4y2leJSX7ML3P-24" edge="1">
          <mxGeometry relative="1" as="geometry" />
        </mxCell>
        <mxCell id="FY-9RKJ4y2leJSX7ML3P-106" style="edgeStyle=orthogonalEdgeStyle;rounded=0;orthogonalLoop=1;jettySize=auto;html=1;exitX=0.5;exitY=0.5;exitDx=0;exitDy=0;exitPerimeter=0;entryX=0.6;entryY=0;entryDx=0;entryDy=0;entryPerimeter=0;endArrow=block;endFill=1;" parent="1" source="FY-9RKJ4y2leJSX7ML3P-1" target="FY-9RKJ4y2leJSX7ML3P-104" edge="1">
          <mxGeometry relative="1" as="geometry" />
        </mxCell>
        <mxCell id="5EE915ZrAtv3oW8OAAik-12" style="edgeStyle=orthogonalEdgeStyle;rounded=0;orthogonalLoop=1;jettySize=auto;html=1;exitX=0.5;exitY=0;exitDx=0;exitDy=0;exitPerimeter=0;endArrow=block;endFill=1;" parent="1" source="FY-9RKJ4y2leJSX7ML3P-1" target="5EE915ZrAtv3oW8OAAik-7" edge="1">
          <mxGeometry relative="1" as="geometry" />
        </mxCell>
        <mxCell id="FY-9RKJ4y2leJSX7ML3P-1" value="Админ" style="shape=umlActor;verticalLabelPosition=bottom;verticalAlign=top;html=1;outlineConnect=0;" parent="1" vertex="1">
          <mxGeometry x="394" y="750" width="30" height="60" as="geometry" />
        </mxCell>
        <mxCell id="FY-9RKJ4y2leJSX7ML3P-47" style="edgeStyle=orthogonalEdgeStyle;rounded=0;orthogonalLoop=1;jettySize=auto;html=1;exitX=0;exitY=0.3333333333333333;exitDx=0;exitDy=0;exitPerimeter=0;endArrow=block;endFill=1;" parent="1" source="FY-9RKJ4y2leJSX7ML3P-3" target="FY-9RKJ4y2leJSX7ML3P-21" edge="1">
          <mxGeometry relative="1" as="geometry" />
        </mxCell>
        <mxCell id="FY-9RKJ4y2leJSX7ML3P-56" style="edgeStyle=orthogonalEdgeStyle;rounded=0;orthogonalLoop=1;jettySize=auto;html=1;entryX=0.5;entryY=1;entryDx=0;entryDy=0;exitX=1;exitY=0.3333333333333333;exitDx=0;exitDy=0;exitPerimeter=0;endArrow=block;endFill=1;" parent="1" source="FY-9RKJ4y2leJSX7ML3P-3" target="FY-9RKJ4y2leJSX7ML3P-55" edge="1">
          <mxGeometry relative="1" as="geometry">
            <mxPoint x="460" y="500" as="sourcePoint" />
          </mxGeometry>
        </mxCell>
        <mxCell id="5EE915ZrAtv3oW8OAAik-2" style="edgeStyle=orthogonalEdgeStyle;rounded=0;orthogonalLoop=1;jettySize=auto;html=1;exitX=0.5;exitY=0.5;exitDx=0;exitDy=0;exitPerimeter=0;entryX=1;entryY=0.5;entryDx=0;entryDy=0;endArrow=block;endFill=1;" parent="1" source="FY-9RKJ4y2leJSX7ML3P-3" target="5EE915ZrAtv3oW8OAAik-1" edge="1">
          <mxGeometry relative="1" as="geometry" />
        </mxCell>
        <mxCell id="FY-9RKJ4y2leJSX7ML3P-3" value="Аутифицированный" style="shape=umlActor;verticalLabelPosition=bottom;verticalAlign=top;html=1;outlineConnect=0;" parent="1" vertex="1">
          <mxGeometry x="394" y="470" width="30" height="60" as="geometry" />
        </mxCell>
        <mxCell id="FY-9RKJ4y2leJSX7ML3P-39" value="" style="edgeStyle=orthogonalEdgeStyle;rounded=0;orthogonalLoop=1;jettySize=auto;html=1;exitX=0.5;exitY=0;exitDx=0;exitDy=0;exitPerimeter=0;endArrow=block;endFill=1;" parent="1" source="FY-9RKJ4y2leJSX7ML3P-7" target="FY-9RKJ4y2leJSX7ML3P-16" edge="1">
          <mxGeometry relative="1" as="geometry">
            <mxPoint x="390" y="340" as="sourcePoint" />
          </mxGeometry>
        </mxCell>
        <mxCell id="FY-9RKJ4y2leJSX7ML3P-40" value="" style="edgeStyle=orthogonalEdgeStyle;rounded=0;orthogonalLoop=1;jettySize=auto;html=1;exitX=0.25;exitY=0.1;exitDx=0;exitDy=0;exitPerimeter=0;endArrow=block;endFill=1;" parent="1" source="FY-9RKJ4y2leJSX7ML3P-7" target="FY-9RKJ4y2leJSX7ML3P-15" edge="1">
          <mxGeometry relative="1" as="geometry" />
        </mxCell>
        <mxCell id="FY-9RKJ4y2leJSX7ML3P-7" value="Гость" style="shape=umlActor;verticalLabelPosition=bottom;verticalAlign=top;html=1;outlineConnect=0;" parent="1" vertex="1">
          <mxGeometry x="394" y="320" width="30" height="60" as="geometry" />
        </mxCell>
        <mxCell id="FY-9RKJ4y2leJSX7ML3P-14" value="" style="endArrow=block;html=1;rounded=0;endFill=1;" parent="1" edge="1">
          <mxGeometry width="50" height="50" relative="1" as="geometry">
            <mxPoint x="409" y="470" as="sourcePoint" />
            <mxPoint x="408.71" y="400" as="targetPoint" />
          </mxGeometry>
        </mxCell>
        <mxCell id="FY-9RKJ4y2leJSX7ML3P-15" value="Регистрация" style="ellipse;whiteSpace=wrap;html=1;" parent="1" vertex="1">
          <mxGeometry x="225" y="230" width="90" height="60" as="geometry" />
        </mxCell>
        <mxCell id="FY-9RKJ4y2leJSX7ML3P-42" value="" style="edgeStyle=orthogonalEdgeStyle;rounded=0;orthogonalLoop=1;jettySize=auto;html=1;dashed=1;endArrow=open;endFill=0;" parent="1" source="FY-9RKJ4y2leJSX7ML3P-16" target="FY-9RKJ4y2leJSX7ML3P-22" edge="1">
          <mxGeometry relative="1" as="geometry" />
        </mxCell>
        <mxCell id="FY-9RKJ4y2leJSX7ML3P-16" value="Логин" style="ellipse;whiteSpace=wrap;html=1;" parent="1" vertex="1">
          <mxGeometry x="364" y="150" width="90" height="60" as="geometry" />
        </mxCell>
        <mxCell id="FY-9RKJ4y2leJSX7ML3P-35" value="" style="edgeStyle=orthogonalEdgeStyle;rounded=0;orthogonalLoop=1;jettySize=auto;html=1;dashed=1;endArrow=open;endFill=0;exitX=0.5;exitY=0;exitDx=0;exitDy=0;entryX=0;entryY=0.5;entryDx=0;entryDy=0;" parent="1" source="FY-9RKJ4y2leJSX7ML3P-55" target="FY-9RKJ4y2leJSX7ML3P-28" edge="1">
          <mxGeometry relative="1" as="geometry">
            <mxPoint x="520" y="240" as="sourcePoint" />
          </mxGeometry>
        </mxCell>
        <mxCell id="FY-9RKJ4y2leJSX7ML3P-20" value="Просмотр сотрудников&amp;nbsp;" style="ellipse;whiteSpace=wrap;html=1;" parent="1" vertex="1">
          <mxGeometry x="620" y="420" width="100" height="70" as="geometry" />
        </mxCell>
        <mxCell id="FY-9RKJ4y2leJSX7ML3P-49" style="edgeStyle=orthogonalEdgeStyle;rounded=0;orthogonalLoop=1;jettySize=auto;html=1;exitX=0;exitY=0.5;exitDx=0;exitDy=0;entryX=0.435;entryY=1.006;entryDx=0;entryDy=0;entryPerimeter=0;dashed=1;endArrow=open;endFill=0;" parent="1" source="FY-9RKJ4y2leJSX7ML3P-21" target="FY-9RKJ4y2leJSX7ML3P-22" edge="1">
          <mxGeometry relative="1" as="geometry" />
        </mxCell>
        <mxCell id="NVNqBUZ8Sz1bivW1bShn-4" style="edgeStyle=orthogonalEdgeStyle;rounded=0;orthogonalLoop=1;jettySize=auto;html=1;exitX=0;exitY=0.5;exitDx=0;exitDy=0;entryX=0.5;entryY=0;entryDx=0;entryDy=0;endArrow=open;endFill=0;dashed=1;" parent="1" source="FY-9RKJ4y2leJSX7ML3P-21" target="FY-9RKJ4y2leJSX7ML3P-84" edge="1">
          <mxGeometry relative="1" as="geometry" />
        </mxCell>
        <mxCell id="FY-9RKJ4y2leJSX7ML3P-21" value="Редактирование профиля" style="ellipse;whiteSpace=wrap;html=1;" parent="1" vertex="1">
          <mxGeometry x="230" y="340" width="100" height="70" as="geometry" />
        </mxCell>
        <mxCell id="FY-9RKJ4y2leJSX7ML3P-22" value="Удалить аккаунт" style="ellipse;whiteSpace=wrap;html=1;" parent="1" vertex="1">
          <mxGeometry x="80" y="150" width="90" height="60" as="geometry" />
        </mxCell>
        <mxCell id="FY-9RKJ4y2leJSX7ML3P-23" value="Редактирование пользователей" style="ellipse;whiteSpace=wrap;html=1;" parent="1" vertex="1">
          <mxGeometry x="60" y="710" width="110" height="80" as="geometry" />
        </mxCell>
        <mxCell id="FY-9RKJ4y2leJSX7ML3P-127" style="edgeStyle=orthogonalEdgeStyle;rounded=0;orthogonalLoop=1;jettySize=auto;html=1;exitX=0;exitY=0.5;exitDx=0;exitDy=0;entryX=1;entryY=0.5;entryDx=0;entryDy=0;dashed=1;endArrow=open;endFill=0;" parent="1" source="FY-9RKJ4y2leJSX7ML3P-24" target="FY-9RKJ4y2leJSX7ML3P-125" edge="1">
          <mxGeometry relative="1" as="geometry" />
        </mxCell>
        <mxCell id="FY-9RKJ4y2leJSX7ML3P-24" value="Редактирование информации" style="ellipse;whiteSpace=wrap;html=1;" parent="1" vertex="1">
          <mxGeometry x="200" y="820" width="100" height="70" as="geometry" />
        </mxCell>
        <mxCell id="NVNqBUZ8Sz1bivW1bShn-3" style="edgeStyle=orthogonalEdgeStyle;rounded=0;orthogonalLoop=1;jettySize=auto;html=1;exitX=1;exitY=0.5;exitDx=0;exitDy=0;dashed=1;endArrow=open;endFill=0;" parent="1" source="FY-9RKJ4y2leJSX7ML3P-28" target="NVNqBUZ8Sz1bivW1bShn-2" edge="1">
          <mxGeometry relative="1" as="geometry" />
        </mxCell>
        <mxCell id="FY-9RKJ4y2leJSX7ML3P-28" value="&lt;div&gt;Просмотр&lt;/div&gt;&lt;div&gt;информации о&amp;nbsp; проектах&lt;/div&gt;" style="ellipse;whiteSpace=wrap;html=1;" parent="1" vertex="1">
          <mxGeometry x="565" y="270" width="90" height="60" as="geometry" />
        </mxCell>
        <mxCell id="FY-9RKJ4y2leJSX7ML3P-61" style="edgeStyle=orthogonalEdgeStyle;rounded=0;orthogonalLoop=1;jettySize=auto;html=1;exitX=1;exitY=0.5;exitDx=0;exitDy=0;entryX=0;entryY=0.5;entryDx=0;entryDy=0;dashed=1;endArrow=open;endFill=0;" parent="1" source="FY-9RKJ4y2leJSX7ML3P-28" target="FY-9RKJ4y2leJSX7ML3P-59" edge="1">
          <mxGeometry relative="1" as="geometry" />
        </mxCell>
        <mxCell id="NVNqBUZ8Sz1bivW1bShn-1" style="edgeStyle=orthogonalEdgeStyle;rounded=0;orthogonalLoop=1;jettySize=auto;html=1;exitX=1;exitY=1;exitDx=0;exitDy=0;entryX=0;entryY=0.5;entryDx=0;entryDy=0;endArrow=open;endFill=0;dashed=1;" parent="1" source="FY-9RKJ4y2leJSX7ML3P-55" target="FY-9RKJ4y2leJSX7ML3P-20" edge="1">
          <mxGeometry relative="1" as="geometry" />
        </mxCell>
        <mxCell id="FY-9RKJ4y2leJSX7ML3P-55" value="Доступ к информации" style="ellipse;whiteSpace=wrap;html=1;" parent="1" vertex="1">
          <mxGeometry x="470" y="400" width="110" height="70" as="geometry" />
        </mxCell>
        <mxCell id="FY-9RKJ4y2leJSX7ML3P-59" value="Просмотр&amp;nbsp; информации о месте добычи" style="ellipse;whiteSpace=wrap;html=1;" parent="1" vertex="1">
          <mxGeometry x="710" y="170" width="100" height="80" as="geometry" />
        </mxCell>
        <mxCell id="FY-9RKJ4y2leJSX7ML3P-81" value="Создание новостной информации" style="ellipse;whiteSpace=wrap;html=1;" parent="1" vertex="1">
          <mxGeometry x="465" y="850" width="100" height="80" as="geometry" />
        </mxCell>
        <mxCell id="NVNqBUZ8Sz1bivW1bShn-5" style="edgeStyle=orthogonalEdgeStyle;rounded=0;orthogonalLoop=1;jettySize=auto;html=1;exitX=1;exitY=0.5;exitDx=0;exitDy=0;entryX=0.5;entryY=0;entryDx=0;entryDy=0;dashed=1;endArrow=open;endFill=0;" parent="1" source="FY-9RKJ4y2leJSX7ML3P-84" target="5EE915ZrAtv3oW8OAAik-1" edge="1">
          <mxGeometry relative="1" as="geometry" />
        </mxCell>
        <mxCell id="FY-9RKJ4y2leJSX7ML3P-84" value="Подтверждение учетной записи для юр. лица" style="ellipse;whiteSpace=wrap;html=1;" parent="1" vertex="1">
          <mxGeometry x="-90" y="395" width="120" height="90" as="geometry" />
        </mxCell>
        <mxCell id="5EE915ZrAtv3oW8OAAik-16" style="edgeStyle=orthogonalEdgeStyle;rounded=0;orthogonalLoop=1;jettySize=auto;html=1;exitX=1;exitY=0.5;exitDx=0;exitDy=0;entryX=0;entryY=0.5;entryDx=0;entryDy=0;endArrow=open;endFill=0;dashed=1;" parent="1" source="FY-9RKJ4y2leJSX7ML3P-90" target="FY-9RKJ4y2leJSX7ML3P-93" edge="1">
          <mxGeometry relative="1" as="geometry" />
        </mxCell>
        <mxCell id="5EE915ZrAtv3oW8OAAik-19" style="edgeStyle=orthogonalEdgeStyle;rounded=0;orthogonalLoop=1;jettySize=auto;html=1;exitX=1;exitY=0.5;exitDx=0;exitDy=0;entryX=0;entryY=0.5;entryDx=0;entryDy=0;endArrow=open;endFill=0;dashed=1;" parent="1" source="FY-9RKJ4y2leJSX7ML3P-90" target="5EE915ZrAtv3oW8OAAik-18" edge="1">
          <mxGeometry relative="1" as="geometry" />
        </mxCell>
        <mxCell id="FY-9RKJ4y2leJSX7ML3P-90" value="Учёт капитала" style="ellipse;whiteSpace=wrap;html=1;" parent="1" vertex="1">
          <mxGeometry x="548" y="607.5" width="82" height="65" as="geometry" />
        </mxCell>
        <mxCell id="FY-9RKJ4y2leJSX7ML3P-93" value="Доходы" style="ellipse;whiteSpace=wrap;html=1;" parent="1" vertex="1">
          <mxGeometry x="673" y="585" width="60" height="50" as="geometry" />
        </mxCell>
        <mxCell id="FY-9RKJ4y2leJSX7ML3P-96" style="edgeStyle=orthogonalEdgeStyle;rounded=0;orthogonalLoop=1;jettySize=auto;html=1;exitX=0.5;exitY=1;exitDx=0;exitDy=0;" parent="1" source="FY-9RKJ4y2leJSX7ML3P-90" target="FY-9RKJ4y2leJSX7ML3P-90" edge="1">
          <mxGeometry relative="1" as="geometry" />
        </mxCell>
        <mxCell id="FY-9RKJ4y2leJSX7ML3P-100" value="Редактирование новостной информации" style="ellipse;whiteSpace=wrap;html=1;" parent="1" vertex="1">
          <mxGeometry x="600" y="850" width="100" height="80" as="geometry" />
        </mxCell>
        <mxCell id="FY-9RKJ4y2leJSX7ML3P-107" style="edgeStyle=orthogonalEdgeStyle;rounded=0;orthogonalLoop=1;jettySize=auto;html=1;exitX=0.5;exitY=1;exitDx=0;exitDy=0;dashed=1;endArrow=open;endFill=0;" parent="1" source="FY-9RKJ4y2leJSX7ML3P-104" target="FY-9RKJ4y2leJSX7ML3P-81" edge="1">
          <mxGeometry relative="1" as="geometry" />
        </mxCell>
        <mxCell id="FY-9RKJ4y2leJSX7ML3P-108" style="edgeStyle=orthogonalEdgeStyle;rounded=0;orthogonalLoop=1;jettySize=auto;html=1;exitX=0.5;exitY=1;exitDx=0;exitDy=0;dashed=1;endArrow=open;endFill=0;" parent="1" source="FY-9RKJ4y2leJSX7ML3P-104" target="FY-9RKJ4y2leJSX7ML3P-100" edge="1">
          <mxGeometry relative="1" as="geometry" />
        </mxCell>
        <mxCell id="FY-9RKJ4y2leJSX7ML3P-110" style="edgeStyle=orthogonalEdgeStyle;rounded=0;orthogonalLoop=1;jettySize=auto;html=1;exitX=1;exitY=0.5;exitDx=0;exitDy=0;entryX=0;entryY=0.5;entryDx=0;entryDy=0;dashed=1;endArrow=open;endFill=0;" parent="1" source="FY-9RKJ4y2leJSX7ML3P-104" target="FY-9RKJ4y2leJSX7ML3P-109" edge="1">
          <mxGeometry relative="1" as="geometry" />
        </mxCell>
        <mxCell id="FY-9RKJ4y2leJSX7ML3P-104" value="Работа с новостной информацией" style="ellipse;whiteSpace=wrap;html=1;" parent="1" vertex="1">
          <mxGeometry x="530" y="730" width="100" height="80" as="geometry" />
        </mxCell>
        <mxCell id="FY-9RKJ4y2leJSX7ML3P-109" value="Удаление новостной информации" style="ellipse;whiteSpace=wrap;html=1;" parent="1" vertex="1">
          <mxGeometry x="690" y="730" width="100" height="80" as="geometry" />
        </mxCell>
        <mxCell id="FY-9RKJ4y2leJSX7ML3P-125" value="О проектах" style="ellipse;whiteSpace=wrap;html=1;" parent="1" vertex="1">
          <mxGeometry x="62.5" y="815" width="105" height="80" as="geometry" />
        </mxCell>
        <mxCell id="5EE915ZrAtv3oW8OAAik-20" style="edgeStyle=orthogonalEdgeStyle;rounded=0;orthogonalLoop=1;jettySize=auto;html=1;exitX=0.5;exitY=1;exitDx=0;exitDy=0;entryX=0.5;entryY=0;entryDx=0;entryDy=0;endArrow=open;endFill=0;dashed=1;" parent="1" source="5EE915ZrAtv3oW8OAAik-1" target="5EE915ZrAtv3oW8OAAik-6" edge="1">
          <mxGeometry relative="1" as="geometry" />
        </mxCell>
        <mxCell id="5EE915ZrAtv3oW8OAAik-1" value="оформление заказа" style="ellipse;whiteSpace=wrap;html=1;" parent="1" vertex="1">
          <mxGeometry x="45" y="485" width="120" height="80" as="geometry" />
        </mxCell>
        <mxCell id="5EE915ZrAtv3oW8OAAik-10" style="edgeStyle=orthogonalEdgeStyle;rounded=0;orthogonalLoop=1;jettySize=auto;html=1;exitX=0;exitY=0.5;exitDx=0;exitDy=0;entryX=1;entryY=0.5;entryDx=0;entryDy=0;endArrow=open;endFill=0;dashed=1;" parent="1" source="5EE915ZrAtv3oW8OAAik-5" target="5EE915ZrAtv3oW8OAAik-6" edge="1">
          <mxGeometry relative="1" as="geometry" />
        </mxCell>
        <mxCell id="5EE915ZrAtv3oW8OAAik-5" value="Редактирование заказа" style="ellipse;whiteSpace=wrap;html=1;" parent="1" vertex="1">
          <mxGeometry x="210" y="625" width="120" height="80" as="geometry" />
        </mxCell>
        <mxCell id="5EE915ZrAtv3oW8OAAik-22" style="edgeStyle=orthogonalEdgeStyle;rounded=0;orthogonalLoop=1;jettySize=auto;html=1;exitX=0;exitY=0.5;exitDx=0;exitDy=0;endArrow=open;endFill=0;dashed=1;" parent="1" source="5EE915ZrAtv3oW8OAAik-6" target="5EE915ZrAtv3oW8OAAik-21" edge="1">
          <mxGeometry relative="1" as="geometry" />
        </mxCell>
        <mxCell id="5EE915ZrAtv3oW8OAAik-6" value="&lt;div&gt;Подтверждение заказа&lt;/div&gt;" style="ellipse;whiteSpace=wrap;html=1;" parent="1" vertex="1">
          <mxGeometry x="45" y="625" width="120" height="80" as="geometry" />
        </mxCell>
        <mxCell id="5EE915ZrAtv3oW8OAAik-9" style="edgeStyle=orthogonalEdgeStyle;rounded=0;orthogonalLoop=1;jettySize=auto;html=1;exitX=0.5;exitY=0;exitDx=0;exitDy=0;exitPerimeter=0;endArrow=block;endFill=1;" parent="1" source="5EE915ZrAtv3oW8OAAik-7" target="FY-9RKJ4y2leJSX7ML3P-3" edge="1">
          <mxGeometry relative="1" as="geometry" />
        </mxCell>
        <mxCell id="5EE915ZrAtv3oW8OAAik-11" style="edgeStyle=orthogonalEdgeStyle;rounded=0;orthogonalLoop=1;jettySize=auto;html=1;exitX=0;exitY=0.3333333333333333;exitDx=0;exitDy=0;exitPerimeter=0;entryX=1;entryY=0.5;entryDx=0;entryDy=0;endArrow=block;endFill=1;" parent="1" source="5EE915ZrAtv3oW8OAAik-7" target="5EE915ZrAtv3oW8OAAik-5" edge="1">
          <mxGeometry relative="1" as="geometry" />
        </mxCell>
        <mxCell id="5EE915ZrAtv3oW8OAAik-17" style="edgeStyle=orthogonalEdgeStyle;rounded=0;orthogonalLoop=1;jettySize=auto;html=1;exitX=1;exitY=0.3333333333333333;exitDx=0;exitDy=0;exitPerimeter=0;entryX=0;entryY=0.3333333333333333;entryDx=0;entryDy=0;entryPerimeter=0;endArrow=block;endFill=1;" parent="1" source="5EE915ZrAtv3oW8OAAik-7" target="5EE915ZrAtv3oW8OAAik-13" edge="1">
          <mxGeometry relative="1" as="geometry" />
        </mxCell>
        <mxCell id="5EE915ZrAtv3oW8OAAik-7" value="&lt;div&gt;менеджер&lt;/div&gt;" style="shape=umlActor;verticalLabelPosition=bottom;verticalAlign=top;html=1;outlineConnect=0;" parent="1" vertex="1">
          <mxGeometry x="394" y="620" width="30" height="60" as="geometry" />
        </mxCell>
        <mxCell id="5EE915ZrAtv3oW8OAAik-15" style="edgeStyle=orthogonalEdgeStyle;rounded=0;orthogonalLoop=1;jettySize=auto;html=1;exitX=1;exitY=0.3333333333333333;exitDx=0;exitDy=0;exitPerimeter=0;entryX=0;entryY=0.5;entryDx=0;entryDy=0;endArrow=block;endFill=1;" parent="1" source="5EE915ZrAtv3oW8OAAik-13" target="FY-9RKJ4y2leJSX7ML3P-90" edge="1">
          <mxGeometry relative="1" as="geometry" />
        </mxCell>
        <mxCell id="5EE915ZrAtv3oW8OAAik-13" value="Бухгалтер" style="shape=umlActor;verticalLabelPosition=bottom;verticalAlign=top;html=1;outlineConnect=0;" parent="1" vertex="1">
          <mxGeometry x="500" y="620" width="30" height="60" as="geometry" />
        </mxCell>
        <mxCell id="5EE915ZrAtv3oW8OAAik-18" value="Расходы" style="ellipse;whiteSpace=wrap;html=1;" parent="1" vertex="1">
          <mxGeometry x="674.5" y="640" width="57" height="50" as="geometry" />
        </mxCell>
        <mxCell id="5EE915ZrAtv3oW8OAAik-21" value="&lt;div&gt;доставка&lt;/div&gt;" style="ellipse;whiteSpace=wrap;html=1;" parent="1" vertex="1">
          <mxGeometry x="-80" y="635" width="80" height="60" as="geometry" />
        </mxCell>
        <mxCell id="NVNqBUZ8Sz1bivW1bShn-2" value="Просмотр сколько было инвестировано денег" style="ellipse;whiteSpace=wrap;html=1;" parent="1" vertex="1">
          <mxGeometry x="710" y="330" width="105" height="80" as="geometry" />
        </mxCell>
      </root>
    </mxGraphModel>
  </diagram>
</mxfile>
